<?xml version="1.0" encoding="utf-8"?>
<!-- Generator: Adobe Illustrator 16.0.0, SVG Export Plug-In . SVG Version: 6.00 Build 0)  -->
<!DOCTYPE svg PUBLIC "-//W3C//DTD SVG 1.0//EN" "http://www.w3.org/TR/2001/REC-SVG-20010904/DTD/svg10.dtd">
<svg version="1.0" id="Layer_1" xmlns="http://www.w3.org/2000/svg" xmlns:xlink="http://www.w3.org/1999/xlink" x="0px" y="0px"
	 width="708.66px" height="708.66px" viewBox="0 0 708.66 708.66" enable-background="new 0 0 708.66 708.66" xml:space="preserve">
<g>
	<path fill="none" stroke="#F80752" stroke-width="12" stroke-linecap="round" stroke-linejoin="round" stroke-miterlimit="10" d="
		M445.821,226.796c0,17.602-14.281,31.884-31.908,31.884s-31.885-14.282-31.885-31.884c0-17.627,14.258-31.909,31.885-31.909
		S445.821,209.169,445.821,226.796z"/>
	<path fill="none" stroke="#F80752" stroke-width="12" stroke-linecap="round" stroke-linejoin="round" stroke-miterlimit="10" d="
		M439.743,245.375c-5.786,8.02-15.161,13.306-25.83,13.306c-10.327,0-19.409-5.005-25.244-12.61
		c-23.34,3.406-46.215,10.791-67.48,22.253c51.563,49.951,132.934,50.708,185.473,2.393
		C486.202,257.02,463.253,248.585,439.743,245.375z"/>
	<path fill="none" stroke="#F80752" stroke-width="12" stroke-linecap="round" stroke-linejoin="round" stroke-miterlimit="10" d="
		M530.855,290.552c-25.635-25.647-57.837-40.539-91.21-45.08c-5.786,7.971-15.112,13.208-25.732,13.208
		c-10.278,0-19.312-4.956-25.146-12.5c-42.188,6.104-82.836,25.146-115.282,57.592c-17.627,17.615-40.698,26.416-63.793,26.416
		c-28.857,0-79.711-33.032-79.711-33.032l-94.531,9.143c57.714,0.037,115.429,22.034,159.422,66.064v-0.036
		c61.621,61.645,142.43,92.454,223.216,92.491c40.819,0,81.64-15.576,112.768-46.716
		C566.085,382.886,566.085,325.77,530.855,290.552z"/>
	<path fill="none" stroke="#F80752" stroke-width="12" stroke-linecap="round" stroke-linejoin="round" stroke-miterlimit="10" d="
		M654.561,293.274c-11.548-11.548-27.489-18.676-45.093-18.676l0,0c-26.439,0-50.341,10.717-67.675,28.027
		c-0.171,0.171-0.317,0.378-0.513,0.562c5.029,7.251,8.838,15.076,11.475,23.206c1.88-2.405,3.809-4.724,5.957-6.86
		c12.988-12.976,30.932-21.008,50.756-21.008l-0.023-0.012c11.01,0,20.995,4.456,28.197,11.682
		c7.227,7.214,11.67,17.188,11.67,28.186v0.012c0,11.011-4.468,20.997-11.694,28.199c-7.202,7.227-17.163,11.67-28.173,11.67h0.023
		c-12.451,0.012-23.73,5.053-31.885,13.207c-7.543,7.532-12.23,17.785-12.914,29.113c11.523-11.389,27.318-18.396,44.799-18.396
		h-0.023c17.602-0.013,33.544-7.128,45.092-18.677c11.548-11.547,18.677-27.489,18.677-45.117l0.024-0.024
		C673.237,320.765,666.108,304.822,654.561,293.274z"/>
	<path fill="none" stroke="#F80752" stroke-width="12" stroke-linecap="round" stroke-linejoin="round" stroke-miterlimit="10" d="
		M418.088,464.818c-35.107-0.024-70.214-5.859-103.759-17.517c-7.715,25.415-21.533,48.169-39.819,66.479l278.855-0.025
		c-22.388-22.387-36.597-49.816-42.871-78.625C482.907,454.809,450.534,464.818,418.088,464.818z"/>
</g>
</svg>
