<?xml version="1.0" encoding="utf-8"?>
<!-- Generator: Adobe Illustrator 16.0.0, SVG Export Plug-In . SVG Version: 6.00 Build 0)  -->
<!DOCTYPE svg PUBLIC "-//W3C//DTD SVG 1.0//EN" "http://www.w3.org/TR/2001/REC-SVG-20010904/DTD/svg10.dtd">
<svg version="1.0" id="Layer_1" xmlns="http://www.w3.org/2000/svg" xmlns:xlink="http://www.w3.org/1999/xlink" x="0px" y="0px"
	 width="708.66px" height="708.66px" viewBox="0 0 708.66 708.66" enable-background="new 0 0 708.66 708.66" xml:space="preserve">
<g>
	<path fill="none" stroke="#f80752" stroke-width="12" stroke-linecap="round" stroke-linejoin="round" stroke-miterlimit="10" d="
		M216.563,403.372c-90.246,0-163.426-73.168-163.426-163.427l23.364-23.339c0,90.234,73.168,163.414,163.427,163.414
		L216.563,403.372z"/>
	<path fill="none" stroke="#f80752" stroke-width="12" stroke-linecap="round" stroke-linejoin="round" stroke-miterlimit="10" d="
		M239.928,53.143c90.258-0.012,163.438,73.169,163.438,163.427l-23.34,23.34c0-90.246-73.192-163.415-163.451-163.402
		L239.928,53.143z"/>
	
		<polygon fill="none" stroke="#f80752" stroke-width="12" stroke-linecap="round" stroke-linejoin="round" stroke-miterlimit="10" points="
		617.329,591.884 591.89,617.336 159.264,184.697 184.716,159.258 	"/>
	<path fill="none" stroke="#f80752" stroke-width="12" stroke-linecap="round" stroke-linejoin="round" stroke-miterlimit="10" d="
		M202.647,228.081c-38.586,26.624-91.82,22.815-126.146-11.499v0.024c0,90.234,73.168,163.414,163.427,163.414
		c-34.351-34.337-38.135-87.584-11.523-126.158L202.647,228.081z"/>
	<path fill="none" stroke="#f80752" stroke-width="12" stroke-linecap="round" stroke-linejoin="round" stroke-miterlimit="10" d="
		M216.576,76.507c34.338,34.313,38.147,87.561,11.523,126.159l25.769,25.757c38.574-26.611,91.796-22.827,126.158,11.499v-0.012
		C380.026,149.663,306.834,76.495,216.576,76.507z"/>
	
		<polygon fill="none" stroke="#f80752" stroke-width="12" stroke-linecap="round" stroke-linejoin="round" stroke-miterlimit="10" points="
		566.451,540.993 541.012,566.457 388.327,413.748 413.767,388.297 	"/>
	
		<polygon fill="none" stroke="#f80752" stroke-width="12" stroke-linecap="round" stroke-linejoin="round" stroke-miterlimit="10" points="
		655.513,655.482 579.171,630.055 630.073,579.164 	"/>
	<path fill="none" stroke="#f80752" stroke-width="12" stroke-linecap="round" stroke-linejoin="round" stroke-miterlimit="10" d="
		M413.767,439.211l25.439-25.463L413.767,439.211z"/>
	<path fill="none" stroke="#f80752" stroke-width="12" stroke-linecap="round" stroke-linejoin="round" stroke-miterlimit="10" d="
		M439.206,464.639l25.463-25.428L439.206,464.639z"/>
	<path fill="none" stroke="#f80752" stroke-width="12" stroke-linecap="round" stroke-linejoin="round" stroke-miterlimit="10" d="
		M464.669,490.09l25.439-25.451L464.669,490.09z"/>
	<path fill="none" stroke="#f80752" stroke-width="12" stroke-linecap="round" stroke-linejoin="round" stroke-miterlimit="10" d="
		M490.108,515.554l25.439-25.464L490.108,515.554z"/>
	<path fill="none" stroke="#f80752" stroke-width="12" stroke-linecap="round" stroke-linejoin="round" stroke-miterlimit="10" d="
		M515.572,541.018l25.439-25.464L515.572,541.018z"/>
</g>
</svg>
