<svg xmlns="http://www.w3.org/2000/svg" viewBox="0 0 1310 1335.93"><defs><style>.cls-1{fill:#f80752;}</style></defs><title>Asset 1</title><g id="Layer_2" data-name="Layer 2"><g id="Logo_Mini_Kraken" data-name="Logo Mini Kraken"><path class="cls-1" d="M774,847.93l-13,80,96,59,126,164-49,91-48-11-14-48-26,102,56,51,94-24,96-128s-89.91-173.91-91-176C931.21,947.08,829.32,885.63,774,847.93Z"/><polygon class="cls-1" points="1233 563.93 1092 689.93 903 651.93 857 707.93 868 755.93 1142 763.93 1310 635.93 1297 409.93 1084 462.93 1044 603.93 1134 524.93 1233 563.93"/><path class="cls-1" d="M736,961.93l-11-91-63,96c58.47,145,35.28,106.94,85,149-8.11,32.62-19.56,103.62-24,137l-30-19,22,79,115-103v-81l-46-103Z"/><path class="cls-1" d="M866,663a.24.24,0,0,0,.06-.09l66.17-197.54a21.3,21.3,0,0,0,.66-11L879.48,196.07a21.19,21.19,0,0,0-7-11.85L655.14.05a.21.21,0,0,0-.28,0L437.56,184.22a21.19,21.19,0,0,0-7,11.85L376,459.87a.25.25,0,0,0,0,.12l66.26,197.8a21.17,21.17,0,0,0,5.7,8.82L654.85,857.79a.22.22,0,0,0,.3,0Z"/><path class="cls-1" d="M648,966.93l-63-96-11,91-48,64-46,103v81l115,103,22-79-30,19c-4.44-33.38-15.89-104.38-24-137C612.72,1073.87,589.53,1111.92,648,966.93Z"/><path class="cls-1" d="M424,1230.93l-48,11-49-91,126-164,96-59-13-80c-55.32,37.7-157.21,99.15-227,160-1.08,2.07-91,175.94-91,176l96,128,94,24,56-51-26-102Z"/><path class="cls-1" d="M1183,782.93l-24,52,72-22-6,54-47,37s-185.16-59.84-197.38-63.8c-97.27-66.87-69.55-53.34-141.62-76.2l-44,70,139,89,288,71,88-165-24-65Z"/><polygon class="cls-1" points="442 755.93 453 707.93 407 651.93 218 689.93 77 563.93 176 524.93 266 603.93 226 462.93 13 409.93 0 635.93 168 763.93 442 755.93"/><path class="cls-1" d="M515,833.93l-44-70c-72.07,22.86-44.35,9.33-141.62,76.2-12.22,4-197.33,63.78-197.38,63.8l-47-37-6-54,72,22-24-52-103-19-24,65,88,165,288-71Z"/></g></g></svg>