<svg width="439" height="387" viewBox="0 0 439 387" fill="none" xmlns="http://www.w3.org/2000/svg">
<path d="M242.977 35.1311C266.87 45.9565 292.327 54.4839 311.065 72.8485C328.787 90.2169 328.759 120.323 347.032 137.111C373.343 161.283 443.356 154.738 438.786 190.187C433.331 232.512 352.387 220.151 331.529 257.374C317.077 283.167 372.711 319.796 353.548 342.306C334.246 364.979 294.502 328.008 265.542 334.886C244.781 339.817 236.161 366.744 216.43 374.872C194.399 383.947 168.982 391.374 146.328 383.993C123.75 376.638 107.71 355.647 95.2769 335.403C83.6934 316.544 90.9494 289.809 77.6259 272.137C57.37 245.271 3.51149 242.701 0.135982 209.216C-2.91684 178.932 46.2547 170.375 64.9471 146.364C80.0942 126.906 86.3392 102.73 99.3436 81.7775C116.597 53.9794 123.477 12.0501 154.58 1.94895C184.845 -7.87965 213.991 21.9984 242.977 35.1311Z" fill="#F80752"/>
</svg>
