<?xml version="1.0" encoding="utf-8"?>
<!-- Generator: Adobe Illustrator 16.0.0, SVG Export Plug-In . SVG Version: 6.00 Build 0)  -->
<!DOCTYPE svg PUBLIC "-//W3C//DTD SVG 1.0//EN" "http://www.w3.org/TR/2001/REC-SVG-20010904/DTD/svg10.dtd">
<svg version="1.0" id="Layer_1" xmlns="http://www.w3.org/2000/svg" xmlns:xlink="http://www.w3.org/1999/xlink" x="0px" y="0px"
	 width="708.66px" height="708.66px" viewBox="0 0 708.66 708.66" enable-background="new 0 0 708.66 708.66" xml:space="preserve">
<g>
	<path fill="none" stroke="#f80752" stroke-width="12" stroke-linecap="round" stroke-linejoin="round" stroke-miterlimit="10" d="
		M165.746,190.73c3.015,7.263-0.439,15.576-7.703,18.591c-7.263,3.003-15.588-0.427-18.604-7.702
		c-3.003-7.275,0.452-15.601,7.715-18.604S162.73,183.455,165.746,190.73z"/>
	<path fill="none" stroke="#f80752" stroke-width="12" stroke-linecap="round" stroke-linejoin="round" stroke-miterlimit="10" d="
		M270.957,147.139c3.004,7.275-0.427,15.588-7.689,18.604c-7.264,3.003-15.601-0.439-18.616-7.703
		c-3.003-7.275,0.452-15.588,7.714-18.603C259.641,136.434,267.955,139.876,270.957,147.139z"/>
	<path fill="none" stroke="#f80752" stroke-width="12" stroke-linecap="round" stroke-linejoin="round" stroke-miterlimit="10" d="
		M240.135,221.541c3.003,7.275-0.427,15.588-7.69,18.603c-7.251,3.003-15.588-0.439-18.604-7.703
		c-3.015-7.275,0.452-15.601,7.715-18.604C228.807,210.823,237.132,214.277,240.135,221.541z"/>
	<path fill="none" stroke="#f80752" stroke-width="12" stroke-linecap="round" stroke-linejoin="round" stroke-miterlimit="10" d="
		M209.336,295.941c3.003,7.275-0.439,15.588-7.703,18.604c-7.263,3.003-15.588-0.427-18.603-7.703s0.439-15.601,7.702-18.604
		C197.996,285.224,206.321,288.678,209.336,295.941z"/>
	<path fill="none" stroke="#f80752" stroke-width="12" stroke-linecap="round" stroke-linejoin="round" stroke-miterlimit="10" d="
		M314.548,252.363c3.015,7.275-0.439,15.588-7.69,18.604c-7.275,3.003-15.612-0.427-18.616-7.715
		c-3.015-7.263,0.452-15.588,7.703-18.591C303.22,241.645,311.533,245.1,314.548,252.363z"/>
	<path fill="none" stroke="#f80752" stroke-width="12" stroke-linecap="round" stroke-linejoin="round" stroke-miterlimit="10" d="
		M378.817,246.296c11.986,28.93-1.881,62.414-30.822,74.389l-140.307,58.118c-28.93,11.999-62.414-1.892-74.414-30.811
		L75.17,207.686c-11.975-28.931,1.892-62.414,30.823-74.389l140.282-58.117c28.942-11.987,62.438,1.88,74.4,30.822L378.817,246.296z
		"/>
	<path fill="none" stroke="#f80752" stroke-width="12" stroke-linecap="round" stroke-linejoin="round" stroke-miterlimit="10" d="
		M483.614,403.07c-5.579,5.579-14.588,5.566-20.143,0.013c-5.554-5.566-5.566-14.576-0.012-20.143
		c5.566-5.566,14.575-5.554,20.166,0C489.181,388.507,489.168,397.517,483.614,403.07z"/>
	<path fill="none" stroke="#f80752" stroke-width="12" stroke-linecap="round" stroke-linejoin="round" stroke-miterlimit="10" d="
		M564.13,483.587c-5.565,5.578-14.563,5.578-20.116,0.012c-5.566-5.554-5.591-14.574-0.013-20.141
		c5.555-5.566,14.588-5.542,20.142,0.012C569.696,469.036,569.696,478.032,564.13,483.587z"/>
	<path fill="none" stroke="#f80752" stroke-width="12" stroke-linecap="round" stroke-linejoin="round" stroke-miterlimit="10" d="
		M443.331,443.341c-5.555,5.566-14.563,5.555-20.129,0s-5.566-14.563,0-20.142c5.554-5.542,14.587-5.542,20.152,0.024
		C448.885,428.766,448.885,437.786,443.331,443.341z"/>
	<path fill="none" stroke="#f80752" stroke-width="12" stroke-linecap="round" stroke-linejoin="round" stroke-miterlimit="10" d="
		M523.86,523.858c-5.566,5.566-14.563,5.566-20.117,0.023c-5.566-5.566-5.578-14.587-0.025-20.153c5.566-5.554,14.6-5.542,20.143,0
		C529.438,509.295,529.414,518.304,523.86,523.858z"/>
	<path fill="none" stroke="#f80752" stroke-width="12" stroke-linecap="round" stroke-linejoin="round" stroke-miterlimit="10" d="
		M403.048,483.599c-5.542,5.579-14.575,5.579-20.105,0.037c-5.566-5.578-5.566-14.6-0.012-20.166
		c5.542-5.541,14.588-5.554,20.154,0.013C408.639,469.036,408.626,478.058,403.048,483.599z"/>
	<path fill="none" stroke="#f80752" stroke-width="12" stroke-linecap="round" stroke-linejoin="round" stroke-miterlimit="10" d="
		M483.589,564.141c-5.554,5.554-14.563,5.566-20.129,0c-5.542-5.554-5.566-14.575-0.012-20.153
		c5.566-5.543,14.587-5.543,20.166,0.023C489.168,549.565,489.144,558.574,483.589,564.141z"/>
	<path fill="none" stroke="#f80752" stroke-width="12" stroke-linecap="round" stroke-linejoin="round" stroke-miterlimit="10" d="
		M513.789,621.171c-22.131,22.162-58.374,22.162-80.528,0.013L325.888,513.8c-22.155-22.145-22.143-58.387-0.012-80.518
		l107.384-107.397c22.154-22.144,58.385-22.144,80.541,0l107.372,107.385c22.155,22.143,22.144,58.385,0,80.529L513.789,621.171z"/>
</g>
</svg>
