<?xml version="1.0" encoding="utf-8"?>
<!-- Generator: Adobe Illustrator 16.0.0, SVG Export Plug-In . SVG Version: 6.00 Build 0)  -->
<!DOCTYPE svg PUBLIC "-//W3C//DTD SVG 1.0//EN" "http://www.w3.org/TR/2001/REC-SVG-20010904/DTD/svg10.dtd">
<svg version="1.0" id="Layer_1" xmlns="http://www.w3.org/2000/svg" xmlns:xlink="http://www.w3.org/1999/xlink" x="0px" y="0px"
	 width="708.66px" height="708.66px" viewBox="0 0 708.66 708.66" enable-background="new 0 0 708.66 708.66" xml:space="preserve">
<g>
	<path fill="none" stroke="#f80752" stroke-width="12" stroke-linecap="round" stroke-linejoin="round" stroke-miterlimit="10" d="
		M327.744,584.608c-48.56-5.701-95.629-27.025-132.885-64.281v35.461c37.256,37.243,84.325,58.545,132.885,64.27V584.608z"/>
	<path fill="none" stroke="#f80752" stroke-width="12" stroke-linecap="round" stroke-linejoin="round" stroke-miterlimit="10" d="
		M513.766,520.327c-37.255,37.256-84.325,58.544-132.872,64.281v35.449c48.547-5.725,95.617-27.051,132.872-64.307V520.327z"/>
	
		<polygon fill="none" stroke="#f80752" stroke-width="12" stroke-linecap="round" stroke-linejoin="round" stroke-miterlimit="10" points="
		372.031,265.739 336.606,265.739 301.157,88.567 407.468,88.567 	"/>
	<path fill="none" stroke="#f80752" stroke-width="12" stroke-linecap="round" stroke-linejoin="round" stroke-miterlimit="10" d="
		M381.809,216.875l-9.777,48.864h-35.425l-9.79-48.864c-74.926,13.037-131.945,78.234-131.945,156.896l-0.012,182.018
		c37.256,37.243,84.325,58.545,132.885,64.27V494.302c-45.813-11.816-79.723-53.309-79.723-102.807h70.861
		c19.568,0,35.438,15.856,35.438,35.437c0-19.58,15.869-35.437,35.436-35.437h70.861c0,49.498-33.91,90.99-79.723,102.807v125.756
		c48.547-5.725,95.617-27.051,132.872-64.307v-181.98C513.766,295.109,456.747,229.912,381.809,216.875z"/>
</g>
</svg>
