<?xml version="1.0" encoding="utf-8"?>
<!-- Generator: Adobe Illustrator 16.0.0, SVG Export Plug-In . SVG Version: 6.00 Build 0)  -->
<!DOCTYPE svg PUBLIC "-//W3C//DTD SVG 1.0//EN" "http://www.w3.org/TR/2001/REC-SVG-20010904/DTD/svg10.dtd">
<svg version="1.0" id="Layer_1" xmlns="http://www.w3.org/2000/svg" xmlns:xlink="http://www.w3.org/1999/xlink" x="0px" y="0px"
	 width="708.66px" height="708.66px" viewBox="0 0 708.66 708.66" enable-background="new 0 0 708.66 708.66" xml:space="preserve">
<g>
	<path fill="none" stroke="#f80752" stroke-width="12" stroke-linecap="round" stroke-linejoin="round" stroke-miterlimit="10" d="
		M495.973,169.904c11.377,11.401,11.377,29.846,0,41.223c-11.401,11.401-29.858,11.401-41.234,0
		c-11.401-11.377-11.401-29.821,0-41.223C466.114,158.502,484.571,158.502,495.973,169.904z"/>
	<path fill="none" stroke="#f80752" stroke-width="12" stroke-linecap="round" stroke-linejoin="round" stroke-miterlimit="10" d="
		M444.411,118.354c0,22.79-18.457,41.247-41.211,41.235l-20.629-61.864l61.84,20.617V118.354z"/>
	<path fill="none" stroke="#f80752" stroke-width="12" stroke-linecap="round" stroke-linejoin="round" stroke-miterlimit="10" d="
		M506.275,262.676c0-22.778,18.481-41.247,41.234-41.247l20.63,61.864L506.275,262.676L506.275,262.676z"/>
	<path fill="none" stroke="#f80752" stroke-width="12" stroke-linecap="round" stroke-linejoin="round" stroke-miterlimit="10" d="
		M403.2,221.429c22.779,0.036,41.211,18.481,41.211,41.247l-61.84,20.642l20.605-61.864L403.2,221.429z"/>
	<path fill="none" stroke="#f80752" stroke-width="12" stroke-linecap="round" stroke-linejoin="round" stroke-miterlimit="10" d="
		M547.51,159.589c-22.778-0.024-41.234-18.481-41.234-41.247l61.864-20.617l-20.605,61.84L547.51,159.589z"/>
	<path fill="none" stroke="#f80752" stroke-width="12" stroke-linecap="round" stroke-linejoin="round" stroke-miterlimit="10" d="
		M547.534,159.565l-0.024,0.024c-22.778-0.024-41.234-18.481-41.234-41.247l29.589-9.875
		c-35.912-26.526-85.154-26.526-121.043,0.024l29.59,9.851v0.012c0,22.79-18.457,41.247-41.211,41.235l-9.887-29.577
		c-26.563,35.888-26.563,85.143,0,121.043l9.863-29.602l0.023-0.024c22.779,0.036,41.211,18.481,41.211,41.247l-29.59,9.888
		c35.889,26.525,85.131,26.525,121.043-0.012l-29.589-9.875l0,0c0-22.778,18.481-41.247,41.234-41.247l9.863,29.602
		c26.538-35.9,26.538-85.131,0-121.019L547.534,159.565z"/>
	
		<polygon fill="none" stroke="#f80752" stroke-width="12" stroke-linecap="round" stroke-linejoin="round" stroke-miterlimit="10" points="
		452.15,492.055 405.765,538.465 191.192,323.905 237.578,277.507 	"/>
	
		<polygon fill="none" stroke="#f80752" stroke-width="12" stroke-linecap="round" stroke-linejoin="round" stroke-miterlimit="10" points="
		249.175,265.911 179.596,335.49 162.188,318.107 231.792,248.503 	"/>
	<path fill="none" stroke="#f80752" stroke-width="12" stroke-linecap="round" stroke-linejoin="round" stroke-miterlimit="10" d="
		M521.729,550.062c16.016,16.016,16.016,41.979,0.023,58.019c-16.015,15.992-41.99,15.992-58.006-0.036
		c-16.016-16.003-15.991-41.967,0.023-57.982C479.786,534.07,505.738,534.047,521.729,550.062z"/>
	<path fill="none" stroke="#f80752" stroke-width="12" stroke-linecap="round" stroke-linejoin="round" stroke-miterlimit="10" d="
		M463.771,550.062c4.127-4.101,8.912-7.128,14.039-9.118l-37.256-37.268l-23.217,23.205l37.279,37.243
		C456.618,559.021,459.62,554.225,463.771,550.062z"/>
	<path fill="none" stroke="#f80752" stroke-width="12" stroke-linecap="round" stroke-linejoin="round" stroke-miterlimit="10" d="
		M501.441,570.35c4.81,4.81,4.81,12.598,0,17.432c-4.81,4.785-12.598,4.785-17.382-0.013c-4.811-4.821-4.811-12.609,0-17.419
		C488.844,565.576,496.632,565.576,501.441,570.35z"/>
	<path fill="none" stroke="#f80752" stroke-width="12" stroke-linecap="round" stroke-linejoin="round" stroke-miterlimit="10" d="
		M214.385,347.098l46.386-46.398L214.385,347.098z"/>
	<path fill="none" stroke="#f80752" stroke-width="12" stroke-linecap="round" stroke-linejoin="round" stroke-miterlimit="10" d="
		M237.578,370.316l46.411-46.411L237.578,370.316z"/>
	<path fill="none" stroke="#f80752" stroke-width="12" stroke-linecap="round" stroke-linejoin="round" stroke-miterlimit="10" d="
		M260.771,393.497l46.411-46.399L260.771,393.497z"/>
	<path fill="none" stroke="#f80752" stroke-width="12" stroke-linecap="round" stroke-linejoin="round" stroke-miterlimit="10" d="
		M283.963,416.678l46.411-46.398L283.963,416.678z"/>
	<path fill="none" stroke="#f80752" stroke-width="12" stroke-linecap="round" stroke-linejoin="round" stroke-miterlimit="10" d="
		M307.157,439.883l46.41-46.41L307.157,439.883z"/>
	<path fill="none" stroke="#f80752" stroke-width="12" stroke-linecap="round" stroke-linejoin="round" stroke-miterlimit="10" d="
		M330.375,463.051l46.386-46.373L330.375,463.051z"/>
	<path fill="none" stroke="#f80752" stroke-width="12" stroke-linecap="round" stroke-linejoin="round" stroke-miterlimit="10" d="
		M353.543,486.27l46.411-46.411L353.543,486.27z"/>
	<path fill="none" stroke="#f80752" stroke-width="12" stroke-linecap="round" stroke-linejoin="round" stroke-miterlimit="10" d="
		M376.736,509.462l46.435-46.411L376.736,509.462z"/>
	<path fill="none" stroke="#f80752" stroke-width="12" stroke-linecap="round" stroke-linejoin="round" stroke-miterlimit="10" d="
		M196.978,283.317l-46.386-46.41c-25.634-25.61-25.634-67.15,0-92.784c25.634-25.622,67.162-25.622,92.796,0l13.574,13.598
		c20.288,20.264,48.267,32.813,79.198,32.813h37.255h-37.255c-30.932,0-58.91-12.549-79.198-32.813l-13.574-13.598
		c-25.634-25.622-67.162-25.622-92.796,0c-25.634,25.634-25.634,67.174,0,92.784L196.978,283.317z"/>
</g>
</svg>
